<?xml version="1.0" encoding="UTF-8" standalone="no"?>
<svg
   xmlns:dc="http://purl.org/dc/elements/1.1/"
   xmlns:cc="http://creativecommons.org/ns#"
   xmlns:rdf="http://www.w3.org/1999/02/22-rdf-syntax-ns#"
   xmlns:svg="http://www.w3.org/2000/svg"
   xmlns="http://www.w3.org/2000/svg"
   xmlns:sodipodi="http://sodipodi.sourceforge.net/DTD/sodipodi-0.dtd"
   xmlns:inkscape="http://www.inkscape.org/namespaces/inkscape"
   viewBox="0 0 16 16"
   id="svg2"
   version="1.1"
   inkscape:version="0.91 r13725"
   sodipodi:docname="folder-favorites.svg">
  <metadata
     id="metadata10">
    <rdf:RDF>
      <cc:Work
         rdf:about="">
        <dc:format>image/svg+xml</dc:format>
        <dc:type
           rdf:resource="http://purl.org/dc/dcmitype/StillImage" />
        <dc:title></dc:title>
      </cc:Work>
    </rdf:RDF>
  </metadata>
  <defs
     id="defs8" />
  <sodipodi:namedview
     pagecolor="#ffffff"
     bordercolor="#666666"
     borderopacity="1"
     objecttolerance="10"
     gridtolerance="10"
     guidetolerance="10"
     inkscape:pageopacity="0"
     inkscape:pageshadow="2"
     inkscape:window-width="1366"
     inkscape:window-height="746"
     id="namedview6"
     showgrid="false"
     inkscape:zoom="10.429825"
     inkscape:cx="10.215252"
     inkscape:cy="-3.814655"
     inkscape:window-x="0"
     inkscape:window-y="22"
     inkscape:window-maximized="1"
     inkscape:current-layer="svg2" />
  <path
     style="color:#000000;clip-rule:nonzero;display:inline;overflow:visible;visibility:visible;opacity:1;isolation:auto;mix-blend-mode:normal;color-interpolation:sRGB;color-interpolation-filters:linearRGB;solid-color:#000000;solid-opacity:1;fill:#ffffff;fill-opacity:1;fill-rule:nonzero;stroke:none;stroke-width:1px;stroke-linecap:butt;stroke-linejoin:miter;stroke-miterlimit:4;stroke-dasharray:none;stroke-dashoffset:0;stroke-opacity:1;color-rendering:auto;image-rendering:auto;shape-rendering:auto;text-rendering:auto;enable-background:accumulate"
     d="M 3.5315419,13.95495 C 3.2774963,13.857722 3.144196,13.738881 3.0320302,13.509622 L 2.9261943,13.293301 2.9370683,7.9342009 2.9479423,2.5751002 3.0806266,2.3840393 c 0.086025,-0.1238743 0.201588,-0.2249915 0.3286283,-0.28755 l 0.1959441,-0.096489 4.4159447,0 c 4.2323363,0 4.4219223,0.00319 4.5597193,0.076693 0.201055,0.1072466 0.323772,0.2268761 0.414783,0.4043439 0.07565,0.1475143 0.07816,0.3246475 0.07816,5.516432 0,5.1917838 -0.0026,5.3689158 -0.07816,5.5164308 -0.15812,0.308331 -0.437218,0.473459 -0.805029,0.4763 -0.159547,0.0012 -0.301369,-0.02487 -0.402129,-0.07401 -0.0868,-0.04233 -0.957109,-0.846592 -1.9672723,-1.817964 L 8.0096025,10.356176 7.676475,10.677413 c -2.3271501,2.244086 -3.2626393,3.127954 -3.3945858,3.20727 -0.1992538,0.119775 -0.5380778,0.151505 -0.7503456,0.07027 z"
     id="path4149"
     inkscape:connector-curvature="0" />
</svg>
