<?xml version="1.0" encoding="UTF-8" standalone="no"?>
<svg
   xmlns:dc="http://purl.org/dc/elements/1.1/"
   xmlns:cc="http://creativecommons.org/ns#"
   xmlns:rdf="http://www.w3.org/1999/02/22-rdf-syntax-ns#"
   xmlns:svg="http://www.w3.org/2000/svg"
   xmlns="http://www.w3.org/2000/svg"
   xmlns:sodipodi="http://sodipodi.sourceforge.net/DTD/sodipodi-0.dtd"
   xmlns:inkscape="http://www.inkscape.org/namespaces/inkscape"
   viewBox="0 0 16 16"
   id="svg2"
   version="1.1"
   inkscape:version="0.91 r13725"
   sodipodi:docname="folder-books.svg">
  <metadata
     id="metadata10">
    <rdf:RDF>
      <cc:Work
         rdf:about="">
        <dc:format>image/svg+xml</dc:format>
        <dc:type
           rdf:resource="http://purl.org/dc/dcmitype/StillImage" />
        <dc:title></dc:title>
      </cc:Work>
    </rdf:RDF>
  </metadata>
  <defs
     id="defs8">
    <linearGradient
       id="1">
      <stop
         stop-color="#289bf7"
         id="stop19" />
      <stop
         offset="1"
         stop-color="#71b9f1"
         id="stop21" />
    </linearGradient>
    <linearGradient
       gradientUnits="userSpaceOnUse"
       y2="352.98001"
       x2="-601.15002"
       y1="663.95001"
       x1="-591.02002"
       id="3">
      <stop
         stop-color="#289bf7"
         id="stop7" />
      <stop
         offset="1"
         stop-color="#4caaf4"
         id="stop9" />
    </linearGradient>
  </defs>
  <sodipodi:namedview
     pagecolor="#ffffff"
     bordercolor="#666666"
     borderopacity="1"
     objecttolerance="10"
     gridtolerance="10"
     guidetolerance="10"
     inkscape:pageopacity="0"
     inkscape:pageshadow="2"
     inkscape:window-width="1366"
     inkscape:window-height="746"
     id="namedview6"
     showgrid="false"
     inkscape:zoom="10.429825"
     inkscape:cx="-20.615736"
     inkscape:cy="-0.082442264"
     inkscape:window-x="0"
     inkscape:window-y="22"
     inkscape:window-maximized="1"
     inkscape:current-layer="svg2" />
  <g
     transform="matrix(0.02509804,0,0,0.02509804,1.9999998,1.9999998)"
     id="g6762"
     style="fill:#ffffff;fill-opacity:1;stroke:#1A1D20;stroke-opacity:0">
    <path
       style="fill:#ffffff;fill-opacity:1;stroke:#1A1D20;stroke-opacity:0"
       inkscape:connector-curvature="0"
       d="m 420.75,19.125 9.562,0 L 430.312,0 95.625,0 C 68.85,0 47.812,21.038 47.812,47.812 l 0,372.938 c 0,32.513 24.862,57.375 57.375,57.375 l 19.125,0 0,-401.625 -28.687,0 c -15.3,0 -28.688,-13.388 -28.688,-28.688 0,-15.3 13.388,-28.688 28.688,-28.688 l 286.875,0 c 0,0 -9.562,13.388 -9.562,28.688 0,15.3 9.562,28.688 9.562,28.688 l -239.062,0 0,401.625 286.875,0 0,-401.625 -9.562,0 c -15.3,0 -28.688,-13.388 -28.688,-28.688 0,-15.3 13.387,-28.687 28.687,-28.687 z"
       id="path6764" />
  </g>
</svg>
