<?xml version="1.0" encoding="UTF-8" standalone="no"?>
<svg
   xmlns:dc="http://purl.org/dc/elements/1.1/"
   xmlns:cc="http://creativecommons.org/ns#"
   xmlns:rdf="http://www.w3.org/1999/02/22-rdf-syntax-ns#"
   xmlns:svg="http://www.w3.org/2000/svg"
   xmlns="http://www.w3.org/2000/svg"
   xmlns:sodipodi="http://sodipodi.sourceforge.net/DTD/sodipodi-0.dtd"
   xmlns:inkscape="http://www.inkscape.org/namespaces/inkscape"
   viewBox="0 0 16 16"
   id="svg2"
   version="1.1"
   inkscape:version="0.91 r13725"
   sodipodi:docname="user-desktop.svg">
  <metadata
     id="metadata10">
    <rdf:RDF>
      <cc:Work
         rdf:about="">
        <dc:format>image/svg+xml</dc:format>
        <dc:type
           rdf:resource="http://purl.org/dc/dcmitype/StillImage" />
        <dc:title></dc:title>
      </cc:Work>
    </rdf:RDF>
  </metadata>
  <sodipodi:namedview
     pagecolor="#ffffff"
     bordercolor="#666666"
     borderopacity="1"
     objecttolerance="10"
     gridtolerance="10"
     guidetolerance="10"
     inkscape:pageopacity="0"
     inkscape:pageshadow="2"
     inkscape:window-width="1366"
     inkscape:window-height="746"
     id="namedview8"
     showgrid="false"
     inkscape:zoom="11.313708"
     inkscape:cx="16.873493"
     inkscape:cy="-6.1366345"
     inkscape:window-x="0"
     inkscape:window-y="22"
     inkscape:window-maximized="1"
     inkscape:current-layer="svg2" />
  <defs
     id="defs3051">
    <style
       type="text/css"
       id="current-color-scheme">
      .ColorScheme-Text {
        color:#4d4d4d;
      }
      </style>
  </defs>
  <path
     style="fill:#ffffff;fill-opacity:1;stroke:#000000;stroke-width:0;stroke-miterlimit:4;stroke-dasharray:none;stroke-opacity:1"
     d="M 2 2 L 2 14 L 14 14 L 14 2 L 2 2 z M 3 3 L 13 3 L 13 12 L 13 13 L 3 13 L 3 12 L 3 3 z M 4 11 L 4 12 L 12 12 L 12 11 L 4 11 z "
     class="ColorScheme-Text"
     id="path6" />
  <path
     style="color:#000000;clip-rule:nonzero;display:inline;overflow:visible;visibility:visible;opacity:1;isolation:auto;mix-blend-mode:normal;color-interpolation:sRGB;color-interpolation-filters:linearRGB;solid-color:#000000;solid-opacity:1;fill:#ffffff;fill-opacity:0;fill-rule:nonzero;stroke:none;stroke-width:1px;stroke-linecap:butt;stroke-linejoin:miter;stroke-miterlimit:4;stroke-dasharray:none;stroke-dashoffset:0;stroke-opacity:1;color-rendering:auto;image-rendering:auto;shape-rendering:auto;text-rendering:auto;enable-background:accumulate"
     d="M 3.0026947,11.414082 3.0050578,9.8341401 4.2194675,8.9807071 5.4338772,8.1272739 6.7208199,9.0437116 8.0077628,9.9601493 9.8640414,8.0926111 11.72032,6.2250729 l 0.633948,0.6328164 0.633947,0.6328163 0,2.7516594 0,2.751659 -4.9939416,0 -4.9939417,0 0.00236,-1.579942 z m 9.0132483,0.07711 0,-0.530564 -4.0106211,0.01128 -4.0106213,0.01128 -0.012451,0.519281 -0.012451,0.519282 4.0230721,0 4.0230724,0 0,-0.530564 z"
     id="path4135"
     inkscape:connector-curvature="0" />
  <path
     style="color:#000000;clip-rule:nonzero;display:inline;overflow:visible;visibility:visible;opacity:1;isolation:auto;mix-blend-mode:normal;color-interpolation:sRGB;color-interpolation-filters:linearRGB;solid-color:#000000;solid-opacity:1;fill:#ffffff;fill-opacity:1;fill-rule:nonzero;stroke:none;stroke-width:1px;stroke-linecap:butt;stroke-linejoin:miter;stroke-miterlimit:4;stroke-dasharray:none;stroke-dashoffset:0;stroke-opacity:1;color-rendering:auto;image-rendering:auto;shape-rendering:auto;text-rendering:auto;enable-background:accumulate"
     d="M 11.722656 6.2207031 L 9.8691406 8.0898438 L 8.0175781 9.9589844 L 6.8476562 9.1289062 C 6.2048866 8.6719 5.6257877 8.2581065 5.5585938 8.2109375 L 5.4355469 8.125 L 4.2226562 8.9804688 L 3.0097656 9.8339844 L 3.0078125 11.414062 L 3.0078125 12.007812 L 8 12.007812 L 12.994141 12.007812 L 12.994141 10.242188 L 12.994141 7.4902344 L 12.357422 6.8554688 L 11.722656 6.2207031 z "
     id="path4139" />
  <ellipse
     style="opacity:1;fill:#ffffff;fill-opacity:1;stroke:#ffffff;stroke-width:0;stroke-miterlimit:4;stroke-dasharray:none;stroke-opacity:1"
     id="path4145"
     cx="5.0624957"
     cy="4.9687552"
     rx="1.468744"
     ry="1.4687433" />
  <path
     d="m 3.3038977,12.046614 a 0.07578414,0.07578414 0 0 0 -0.075786,0.07579 0.07578414,0.07578414 0 0 0 0.075786,0.07578 0.07578414,0.07578414 0 0 0 0.075781,-0.07578 0.07578414,0.07578414 0 0 0 -0.075781,-0.07579 z m 0.3789192,0 -0.1468333,0.118414 0.1965645,0.243931 -0.184724,0.184725 0.1349928,0.134988 0.3031378,-0.303138 -0.3031378,-0.37892 z m -0.4925954,0.303138 a 0.11367622,0.11367622 0 0 0 -0.1136762,0.113677 0.11367622,0.11367622 0 0 0 0.1136762,0.113676 0.11367622,0.11367622 0 0 0 0.1136762,-0.113676 0.11367622,0.11367622 0 0 0 -0.1136762,-0.113677 z m 0.2273525,0.37892 A 0.11367622,0.11367622 0 0 0 3.3038977,12.842347 0.11367622,0.11367622 0 0 0 3.417574,12.956024 0.11367622,0.11367622 0 0 0 3.5312501,12.842347 0.11367622,0.11367622 0 0 0 3.417574,12.728672 Z"
     id="path2994"
     style="color:#000000;fill:#ffffff;fill-opacity:1"
     inkscape:connector-curvature="0" />
</svg>
