<svg xmlns="http://www.w3.org/2000/svg" xmlns:xlink="http://www.w3.org/1999/xlink" viewBox="0 0 48 48"><defs><clipPath><path d="m558.32 524.53h38.19v-12.815h-38.19v12.815"/></clipPath><clipPath><path d="m596.51 511.71c-7.452 6.109-22.261 15.989-32.626 11.818-5.793-2.332-8.254-7.974-1.48-7.577 13.816.809 20.506 2.306 34.11-4.241"/></clipPath><clipPath><path d="m558.89 526.62h37.604v-14.904h-37.604v14.904"/></clipPath><clipPath><path d="m556.75 546.2h27.01v-29.575h-27.01v29.575"/></clipPath><clipPath><path d="m556.74 544.61h28.84v-27.979h-28.84v27.979"/></clipPath><clipPath><path d="m548.84 543.24h11.247v-38.495h-11.247v38.495"/></clipPath><clipPath><path d="m556.75 516.63c2.252 9.368 8.092 26.19 18.874 29.12 6.02 1.639 11.393-1.373 5.753-5.147-11.502-7.696-17.738-10.542-24.627-23.971"/></clipPath><clipPath><path d="m596.5 511.72c-6.962 6.661-20.973 17.643-31.626 14.277-5.954-1.882-8.839-7.319-2.055-7.441 13.837-.25 20.622.731 33.681-6.836"/></clipPath><clipPath><path d="m0 792h612v-792h-612v792"/></clipPath><clipPath><path d="m547.05 542.87h13.05v-38.14h-13.05v38.14"/></clipPath><linearGradient y2="528.53" x2="416.84" y1="510.8" x1="399.12" gradientUnits="userSpaceOnUse" xlink:href="#0"/><linearGradient id="0"><stop stop-color="#2e5d89"/><stop offset="1" stop-color="#1b92f4"/></linearGradient><linearGradient xlink:href="#0" gradientUnits="userSpaceOnUse" x1="458.2" y1="523.3" x2="473.2" y2="538.3"/><linearGradient id="2" x1="408.71" y1="538.93" x2="408.78" y2="503.88" gradientUnits="userSpaceOnUse"><stop stop-color="#141414"/><stop offset="1" stop-color="#2d2d2f"/></linearGradient><linearGradient id="3" x1="408.33" y1="534.91" x2="407.33" y2="506.05" gradientUnits="userSpaceOnUse"><stop stop-color="#08f"/><stop offset="1" stop-color="#02c3ff"/></linearGradient><linearGradient id="1" gradientUnits="userSpaceOnUse" gradientTransform="matrix(1.11196 0 0 .64757-45.743 188.01)" x1="409.06" y1="544.83" x2="409.17" y2="540.72"><stop stop-color="#c1c3c3"/><stop offset="1" stop-color="#e6e7e8"/></linearGradient></defs><g transform="matrix(.83508 0 0 .83508-317.19-411.99)"><rect width="52" height="35.14" x="382.57" y="503.66" fill="url(#2)" fill-rule="evenodd" stroke="#c3c5ca" stroke-linejoin="round" stroke-linecap="round" stroke-width=".392" rx=".958"/><path d="m379.83 538.2v1.26a2.052847 1.260139 0 0 0 2.05285 1.26014h53.37a2.052847 1.260139 0 0 0 2.05285 -1.26014v-1.26h-2.053-53.37-2.053" fill="url(#1)"/><g fill-rule="evenodd"><rect width="47.833" height="30.16" x="384.66" y="505.77" fill="url(#3)" rx=".5"/><circle cx="433.97" cy="539.47" r=".55" fill="#151515"/></g></g></svg>