<?xml version="1.0" encoding="UTF-8" standalone="no"?>
<svg
   xmlns:dc="http://purl.org/dc/elements/1.1/"
   xmlns:cc="http://creativecommons.org/ns#"
   xmlns:rdf="http://www.w3.org/1999/02/22-rdf-syntax-ns#"
   xmlns:svg="http://www.w3.org/2000/svg"
   xmlns="http://www.w3.org/2000/svg"
   xmlns:sodipodi="http://sodipodi.sourceforge.net/DTD/sodipodi-0.dtd"
   xmlns:inkscape="http://www.inkscape.org/namespaces/inkscape"
   viewBox="0 0 22 22"
   id="svg2"
   version="1.1"
   inkscape:version="0.91 r13725"
   sodipodi:docname="image-missing.svg">
  <metadata
     id="metadata10">
    <rdf:RDF>
      <cc:Work
         rdf:about="">
        <dc:format>image/svg+xml</dc:format>
        <dc:type
           rdf:resource="http://purl.org/dc/dcmitype/StillImage" />
        <dc:title></dc:title>
      </cc:Work>
    </rdf:RDF>
  </metadata>
  <defs
     id="defs8">
    <clipPath
       id="clipPath4142">
      <path
         id="path4144"
         d="m7 1023.36h1v1h-1z"
         fill="#f2f2f2" />
    </clipPath>
  </defs>
  <sodipodi:namedview
     pagecolor="#2a2a2a"
     bordercolor="#666666"
     borderopacity="1"
     objecttolerance="10"
     gridtolerance="10"
     guidetolerance="10"
     inkscape:pageopacity="0"
     inkscape:pageshadow="2"
     inkscape:window-width="1366"
     inkscape:window-height="684"
     id="namedview6"
     showgrid="false"
     inkscape:zoom="10.727273"
     inkscape:cx="11"
     inkscape:cy="11"
     inkscape:window-x="0"
     inkscape:window-y="0"
     inkscape:window-maximized="1"
     inkscape:current-layer="svg2" />
  <path
     id="path4146"
     d="m 18.917926,9.6204542 c -0.05575,-0.07301 -0.12786,-0.116481 -0.218768,-0.13029 l -1.906265,-0.291648 c -0.104206,-0.333331 -0.246642,-0.673567 -0.42718,-1.020835 0.124919,-0.173633 0.312362,-0.418358 0.562328,-0.734427 0.249966,-0.31607 0.427052,-0.546858 0.531258,-0.692746 0.05562,-0.07646 0.08324,-0.156245 0.08324,-0.23961 0,-0.09717 -0.02416,-0.173506 -0.07288,-0.229125 -0.249966,-0.3543 -0.822907,-0.944501 -1.718822,-1.770989 -0.08311,-0.06943 -0.170054,-0.104078 -0.260195,-0.104078 -0.104206,0 -0.187571,0.0312 -0.250094,0.09359 L 13.76146,5.6149792 C 13.476588,5.4690952 13.164098,5.3405962 12.823863,5.2288462 L 12.532214,3.312225 c -0.0069,-0.090269 -0.04692,-0.1649394 -0.119805,-0.2240107 -0.07301,-0.059071 -0.157907,-0.088479 -0.255336,-0.088479 l -2.312987,0 c -0.20138,0 -0.326427,0.097174 -0.375014,0.2916487 C 9.378802,3.6385242 9.27805,4.2843442 9.166939,5.2284632 8.840513,5.3327962 8.525082,5.4647482 8.218985,5.6244452 l -1.43753,-1.114683 c -0.09027,-0.06943 -0.180538,-0.104078 -0.270807,-0.104078 -0.152793,0 -0.480882,0.248176 -0.984394,0.744784 -0.503513,0.496608 -0.845411,0.869832 -1.026716,1.119798 -0.06252,0.09027 -0.09372,0.170182 -0.09372,0.23961 0,0.08336 0.03465,0.166729 0.104078,0.249966 0.465282,0.562584 0.836843,1.041675 1.114683,1.437658 -0.173634,0.319394 -0.309038,0.638916 -0.406211,0.95831 l -1.937079,0.291649 c -0.07633,0.01394 -0.142309,0.05907 -0.197928,0.135532 -0.05562,0.07633 -0.08337,0.156245 -0.08337,0.239481 l 0,2.3129888 c 0,0.0904 0.02775,0.171844 0.08337,0.244724 0.05562,0.07301 0.12786,0.116609 0.218769,0.130417 l 1.906392,0.281292 c 0.09717,0.340236 0.239482,0.683924 0.427053,1.030552 -0.124919,0.173634 -0.31249,0.418358 -0.562456,0.734428 -0.249967,0.31607 -0.427181,0.546857 -0.531259,0.692745 -0.05562,0.07659 -0.08337,0.156245 -0.08337,0.23961 0,0.09027 0.02429,0.170054 0.07288,0.239482 0.270808,0.375141 0.843749,0.958566 1.718822,1.750147 0.07646,0.07646 0.163278,0.114563 0.260451,0.114563 0.104206,0 0.191023,-0.0312 0.260451,-0.09359 L 8.23995,16.385016 c 0.284872,0.145888 0.597362,0.274388 0.937598,0.386137 l 0.291648,1.916622 c 0.007,0.09027 0.04693,0.164939 0.119805,0.22401 0.07288,0.0592 0.158035,0.08848 0.255209,0.08848 l 2.312987,0 c 0.201635,0 0.326554,-0.09717 0.375269,-0.291649 0.09014,-0.347268 0.190767,-0.992961 0.301877,-1.937079 0.326427,-0.104206 0.643136,-0.236285 0.947954,-0.395982 l 1.437658,1.125168 c 0.09717,0.06239 0.187571,0.09359 0.270808,0.09359 0.152665,0 0.479091,-0.246386 0.979024,-0.739542 0.500188,-0.493028 0.843876,-0.86817 1.030551,-1.125168 0.06252,-0.06943 0.09385,-0.149213 0.09385,-0.239482 0,-0.09027 -0.03465,-0.177342 -0.104206,-0.260451 -0.499933,-0.611171 -0.871494,-1.090262 -1.114684,-1.43753 0.138856,-0.256998 0.274388,-0.57294 0.406339,-0.947954 l 1.926851,-0.291521 c 0.08324,-0.01394 0.15292,-0.0592 0.208411,-0.135659 0.05549,-0.07646 0.08311,-0.156373 0.08311,-0.23961 l 0,-2.3129878 c 1.3e-5,-0.09027 -0.02749,-0.171716 -0.08324,-0.244725 m -6.031156,3.2656738 c -0.520774,0.520902 -1.149333,0.781353 -1.885551,0.781353 -0.736218,0 -1.36465,-0.260451 -1.885551,-0.781353 -0.520774,-0.520774 -0.781225,-1.149206 -0.781225,-1.885424 0,-0.736218 0.260323,-1.3646508 0.781225,-1.8855518 0.520901,-0.520774 1.149461,-0.781225 1.885551,-0.781225 0.736218,0 1.364777,0.260451 1.885551,0.781225 0.520774,0.520901 0.781225,1.1493338 0.781225,1.8855518 0,0.736218 -0.260451,1.36465 -0.781225,1.885424"
     inkscape:connector-curvature="0"
     style="fill:#ffffff" />
</svg>
